<svg width="36" height="30" viewBox="0 0 36 30" fill="none" xmlns="http://www.w3.org/2000/svg">
<path d="M28.0092 13.3092L16.0908 1.39079C15.5845 0.884445 14.8977 0.599979 14.1816 0.599976H2.7C1.20881 0.599976 0 1.80879 0 3.29998V14.7816C3.74443e-06 15.4977 0.28447 16.1844 0.790819 16.6908L12.7092 28.6092C13.7635 29.6636 15.4731 29.6636 16.5275 28.6092L28.0092 17.1275C29.0636 16.0731 29.0636 14.3636 28.0092 13.3092ZM6.3 9.59998C4.80881 9.59998 3.6 8.39116 3.6 6.89998C3.6 5.40879 4.80881 4.19998 6.3 4.19998C7.79119 4.19998 9 5.40879 9 6.89998C9 8.39116 7.79119 9.59998 6.3 9.59998ZM35.2092 17.1275L23.7275 28.6092C22.6731 29.6636 20.9636 29.6636 19.9092 28.6092L19.8889 28.5889L29.6798 18.7981C30.6359 17.8419 31.1625 16.5706 31.1625 15.2183C31.1625 13.8661 30.6359 12.5948 29.6798 11.6386L18.6411 0.599976H21.3816C22.0977 0.599979 22.7845 0.884445 23.2908 1.39079L35.2092 13.3092C36.2636 14.3636 36.2636 16.0731 35.2092 17.1275Z" fill="#4F46E5"/>
</svg>
