<svg width="36" height="36" viewBox="0 0 36 36" fill="none" xmlns="http://www.w3.org/2000/svg">
<g clip-path="url(#clip0_1_101)">
<path d="M13.5 14.625C13.5 13.3826 12.4924 12.375 11.25 12.375H10.125C7.63945 12.375 5.625 14.3895 5.625 16.875V20.25C5.625 22.7355 7.63945 24.75 10.125 24.75H11.25C12.4924 24.75 13.5 23.7424 13.5 22.5V14.625ZM25.875 24.75C28.3605 24.75 30.375 22.7355 30.375 20.25V16.875C30.375 14.3895 28.3605 12.375 25.875 12.375H24.75C23.5076 12.375 22.5 13.3826 22.5 14.625V22.5C22.5 23.7424 23.5076 24.75 24.75 24.75H25.875ZM18 0C7.95797 0 0.322031 8.35523 0 18V19.125C0 19.7466 0.503438 20.25 1.125 20.25H2.25C2.87156 20.25 3.375 19.7466 3.375 19.125V18C3.375 9.93586 9.93586 3.375 18 3.375C26.0641 3.375 32.625 9.93586 32.625 18H32.6166C32.6222 18.1709 32.625 29.6522 32.625 29.6522C32.625 31.294 31.294 32.625 29.6522 32.625H22.5C22.5 30.761 20.989 29.25 19.125 29.25H16.875C15.011 29.25 13.5 30.761 13.5 32.625C13.5 34.489 15.011 36 16.875 36H29.6522C33.158 36 36 33.158 36 29.6522V18C35.678 8.35523 28.042 0 18 0Z" fill="#4F46E5"/>
</g>
<defs>
<clipPath id="clip0_1_101">
<rect width="36" height="36" fill="white"/>
</clipPath>
</defs>
</svg>
