<svg width="36" height="30" viewBox="0 0 36 30" fill="none" xmlns="http://www.w3.org/2000/svg">
<path d="M35.1 20.4H34.2V14.3194C34.2 13.605 33.9131 12.9187 33.4069 12.4125L27.7875 6.7931C27.2812 6.28685 26.595 5.99998 25.8806 5.99998H23.4V3.29998C23.4 1.80935 22.1906 0.599976 20.7 0.599976H6.3C4.80937 0.599976 3.6 1.80935 3.6 3.29998V5.99998H0.45C0.2025 5.99998 0 6.20248 0 6.44998V7.34998C0 7.59748 0.2025 7.79998 0.45 7.79998H15.75C15.9975 7.79998 16.2 8.00248 16.2 8.24998V9.14998C16.2 9.39748 15.9975 9.59998 15.75 9.59998H2.25C2.0025 9.59998 1.8 9.80247 1.8 10.05V10.95C1.8 11.1975 2.0025 11.4 2.25 11.4H13.95C14.1975 11.4 14.4 11.6025 14.4 11.85V12.75C14.4 12.9975 14.1975 13.2 13.95 13.2H0.45C0.2025 13.2 0 13.4025 0 13.65V14.55C0 14.7975 0.2025 15 0.45 15H12.15C12.3975 15 12.6 15.2025 12.6 15.45V16.35C12.6 16.5975 12.3975 16.8 12.15 16.8H3.6V24C3.6 26.9812 6.01875 29.4 9 29.4C11.9812 29.4 14.4 26.9812 14.4 24H21.6C21.6 26.9812 24.0187 29.4 27 29.4C29.9812 29.4 32.4 26.9812 32.4 24H35.1C35.595 24 36 23.595 36 23.1V21.3C36 20.805 35.595 20.4 35.1 20.4ZM9 26.7C7.50937 26.7 6.3 25.4906 6.3 24C6.3 22.5093 7.50937 21.3 9 21.3C10.4906 21.3 11.7 22.5093 11.7 24C11.7 25.4906 10.4906 26.7 9 26.7ZM27 26.7C25.5094 26.7 24.3 25.4906 24.3 24C24.3 22.5093 25.5094 21.3 27 21.3C28.4906 21.3 29.7 22.5093 29.7 24C29.7 25.4906 28.4906 26.7 27 26.7ZM31.5 15H23.4V8.69998H25.8806L31.5 14.3194V15Z" fill="#4F46E5"/>
</svg>
